<svg width="184" height="36" viewBox="0 0 184 36" fill="none" xmlns="http://www.w3.org/2000/svg">
    <g clip-path="url(#clip0_285_122)">
        <path d="M85.1737 6.2601C86.242 7.39248 86.9043 8.89875 86.9043 10.5973C86.9043 12.2959 86.2313 13.8235 85.1737 14.9345C84.1588 16.0562 82.6526 16.7719 81.0715 16.7719C79.4905 16.7719 77.9201 16.0562 76.8625 14.9345C75.7942 13.8235 75.164 12.2959 75.164 10.5973C75.164 8.89875 75.8049 7.39248 76.8625 6.2601C77.9094 5.12773 79.4157 4.42267 81.0715 4.42267C82.7274 4.42267 84.1588 5.12773 85.1737 6.2601ZM84.9494 10.5973C84.9494 9.43289 84.4793 8.35393 83.7849 7.59545C83.0692 6.82629 82.1078 6.37761 81.0715 6.37761C79.9712 6.37761 79.0098 6.82629 78.294 7.59545C77.5676 8.35393 77.1296 9.43289 77.1296 10.5973C77.1296 11.7617 77.5783 12.8514 78.294 13.5778C79.0098 14.347 79.9712 14.817 81.0715 14.817C82.0971 14.817 83.0585 14.3576 83.7849 13.5778C84.49 12.8407 84.9494 11.7617 84.9494 10.5973Z" fill="black"/>
        <path d="M90.5792 19.0794V12.5202V9.11241C90.5792 8.61032 90.9958 8.20438 91.4872 8.20438C91.9786 8.20438 92.3632 8.53554 92.4273 8.90944C93.0576 8.49281 93.8802 8.20438 94.7562 8.20438C97.0316 8.20438 98.9118 10.1593 98.9118 12.5095C98.9118 14.8597 97.0423 16.7613 94.7562 16.7613C93.9015 16.7613 93.079 16.5049 92.4594 16.0562V19.0794C92.4594 19.5602 92.032 20.0088 91.4765 20.0088C90.9745 20.0088 90.5685 19.5602 90.5685 19.0794H90.5792ZM92.4594 12.5095C92.4594 13.1825 92.6837 13.8342 93.1324 14.2295C93.5597 14.7102 94.1259 14.9452 94.7668 14.9452C95.3544 14.9452 95.9313 14.7102 96.3799 14.2295C96.7752 13.8342 97.053 13.1825 97.053 12.5095C97.053 11.8365 96.7859 11.2169 96.3799 10.7789C95.9313 10.3196 95.3544 10.0739 94.7668 10.0739C94.1259 10.0739 93.5704 10.3196 93.1324 10.7789C92.6837 11.2276 92.4594 11.8472 92.4594 12.5095Z" fill="black"/>
        <path d="M102.052 12.4882C102.063 10.1486 103.89 8.1937 106.24 8.1937C108.59 8.1937 110.235 9.86021 110.374 12.1784V12.2638C110.374 12.2638 110.374 12.3813 110.353 12.4134C110.3 12.83 109.947 13.0971 109.466 13.0971H104.007C104.093 13.4923 104.285 13.941 104.595 14.2295C104.948 14.6461 105.642 14.9559 106.24 14.9986C106.86 15.052 107.597 14.8918 108.024 14.5713C108.387 14.1974 109.092 14.2401 109.317 14.5179C109.541 14.7529 109.712 15.2764 109.317 15.6289C108.473 16.3981 107.458 16.7613 106.251 16.7613C103.901 16.7399 102.085 14.8063 102.063 12.4775L102.052 12.4882ZM103.922 11.6549H108.783C108.612 10.9712 107.736 9.95635 106.24 9.83884C104.777 9.91362 104.061 10.9605 103.922 11.6549Z" fill="black"/>
        <path d="M121.089 11.7724V15.8746C121.089 16.3767 120.694 16.7826 120.192 16.7826C119.69 16.7826 119.284 16.3767 119.284 15.8746V11.7724C119.284 10.811 118.472 10.0418 117.5 10.0418C116.528 10.0418 115.78 10.811 115.78 11.7724V15.8746C115.78 15.8746 115.78 15.9707 115.748 16.0455C115.662 16.4622 115.288 16.7826 114.84 16.7826C114.327 16.7826 113.932 16.3767 113.932 15.8746V9.11241C113.932 8.61032 114.327 8.20438 114.84 8.20438C115.203 8.20438 115.523 8.40735 115.684 8.73852C116.196 8.40735 116.837 8.20438 117.5 8.20438C119.487 8.20438 121.089 9.82816 121.089 11.7724Z" fill="black"/>
        <path d="M124.753 10.5973C124.775 7.20019 127.616 4.43335 131.046 4.42267C132.552 4.42267 133.93 4.92476 135.009 5.75801C135.425 6.09986 135.49 6.6981 135.18 7.13609C134.838 7.5634 134.197 7.63818 133.802 7.32838C133.043 6.70878 132.103 6.3883 131.035 6.3883C129.849 6.3883 128.749 6.86902 127.948 7.6275C127.178 8.41802 126.698 9.44357 126.698 10.608C126.698 11.7724 127.178 12.8407 127.948 13.5885C128.749 14.347 129.849 14.8277 131.035 14.8277C132.103 14.8277 133.022 14.4965 133.802 13.8876C134.197 13.5992 134.827 13.6633 135.18 14.0799C135.49 14.5072 135.415 15.1268 135.009 15.458C133.93 16.3019 132.552 16.7933 131.046 16.7933C127.616 16.7933 124.764 14.0265 124.753 10.6187V10.5973Z" fill="black"/>
        <path d="M139.795 4.75385C139.293 4.75385 138.887 5.14911 138.887 5.64052V15.8639C138.887 16.366 139.303 16.772 139.795 16.772C140.286 16.772 140.735 16.366 140.735 15.8639V5.64052C140.735 5.13843 140.307 4.75385 139.795 4.75385Z" fill="black"/>
        <path d="M152.294 12.5095V15.8746C152.294 16.3767 151.877 16.7826 151.386 16.7826C150.937 16.7826 150.595 16.4515 150.488 16.0455C149.837 16.5049 149.067 16.7826 148.202 16.7826C147.038 16.7826 146.023 16.3019 145.286 15.5328C144.549 14.7422 144.121 13.674 144.121 12.5095C144.121 11.3451 144.549 10.2662 145.286 9.48631C146.023 8.69578 147.038 8.20438 148.202 8.20438C149.057 8.20438 149.837 8.49281 150.488 8.96285C150.595 8.53554 150.937 8.20438 151.386 8.20438C151.888 8.20438 152.294 8.61032 152.294 9.13378V12.5202V12.5095ZM150.477 12.5095C150.477 11.7831 150.221 11.1742 149.804 10.7362C149.388 10.2768 148.811 10.0311 148.213 10.0311C147.614 10.0311 147.016 10.2662 146.621 10.7362C146.204 11.1635 145.969 11.7831 145.969 12.5095C145.969 13.236 146.215 13.8342 146.621 14.2722C147.016 14.6995 147.604 14.9452 148.213 14.9452C148.822 14.9452 149.399 14.7102 149.804 14.2722C150.221 13.8235 150.477 13.2039 150.477 12.5095Z" fill="black"/>
        <path d="M183.37 15.693C183.37 16.2912 182.878 16.7826 182.28 16.7826H176.629C176.031 16.7826 175.539 16.2912 175.539 15.693C175.539 15.0947 176.02 14.6033 176.629 14.6033H182.28C182.878 14.6033 183.37 15.0947 183.37 15.693Z" fill="black"/>
        <path d="M161.363 12.2318C160.936 12.0288 160.348 11.8472 159.579 11.687C159.098 11.5801 158.735 11.484 158.479 11.3772C158.212 11.2596 158.084 11.1528 158.03 11.0887C157.955 11.0033 157.923 10.8751 157.923 10.7041C157.923 10.4264 158.03 10.2234 158.265 10.0525C158.522 9.87088 158.874 9.77474 159.323 9.77474C159.686 9.77474 159.985 9.81747 160.22 9.91362C160.477 10.0098 160.744 10.1593 161.021 10.3302C161.673 10.7789 162.026 10.7255 162.314 10.4157C162.453 10.2661 162.517 10.0739 162.517 9.8602C162.517 9.47562 162.282 9.13377 161.833 8.81329C161.502 8.59964 161.118 8.42871 160.701 8.30052C159.697 8.01208 158.554 8.07618 157.699 8.45008C157.186 8.67441 156.78 8.98421 156.492 9.37948C156.193 9.78542 156.043 10.2448 156.043 10.7682C156.043 11.4413 156.289 11.9861 156.77 12.392C157.229 12.7659 157.945 13.0543 158.96 13.268C159.504 13.3855 159.921 13.4923 160.199 13.5992C160.498 13.7167 160.637 13.8235 160.69 13.8983C160.765 13.9838 160.797 14.1119 160.797 14.2722C160.797 14.5499 160.69 14.7529 160.445 14.8918C160.167 15.0627 159.761 15.1482 159.227 15.1482C158.778 15.1482 158.415 15.0948 158.126 14.9986C157.827 14.8918 157.517 14.7529 157.218 14.5713C156.577 14.1547 156.214 14.2295 155.947 14.5179C155.819 14.6674 155.744 14.8491 155.744 15.0627C155.744 15.2764 155.808 15.4793 155.926 15.6503C156.033 15.7891 156.193 15.9387 156.428 16.0883C156.802 16.3126 157.229 16.4942 157.71 16.6224C158.18 16.7399 158.693 16.804 159.216 16.804C160.22 16.804 161.043 16.5797 161.673 16.131C162.335 15.6609 162.667 15.0413 162.667 14.2722C162.667 13.7915 162.56 13.3855 162.357 13.065C162.154 12.7445 161.812 12.4668 161.363 12.2531V12.2318Z" fill="black"/>
        <path d="M172.89 13.0437C172.687 12.7232 172.345 12.4454 171.896 12.2318C171.469 12.0288 170.882 11.8472 170.112 11.687C169.632 11.5801 169.268 11.484 169.012 11.3772C168.745 11.2596 168.617 11.1528 168.563 11.0887C168.489 11.0033 168.457 10.8751 168.457 10.7041C168.457 10.4264 168.563 10.2234 168.798 10.0525C169.055 9.87088 169.407 9.77474 169.856 9.77474C170.219 9.77474 170.518 9.81747 170.753 9.91362C171.01 10.0098 171.277 10.1593 171.555 10.3302C172.206 10.7789 172.559 10.7255 172.847 10.4157C172.986 10.2661 173.05 10.0739 173.05 9.8602C173.05 9.47562 172.815 9.13377 172.366 8.81329C172.035 8.59964 171.651 8.42871 171.234 8.30052C170.23 8.01208 169.087 8.07618 168.232 8.45008C167.719 8.67441 167.314 8.98421 167.025 9.37948C166.726 9.78542 166.576 10.2448 166.576 10.7682C166.576 11.4413 166.822 11.9861 167.303 12.392C167.762 12.7659 168.478 13.0543 169.493 13.268C170.038 13.3855 170.454 13.4923 170.732 13.5992C171.031 13.7167 171.17 13.8235 171.223 13.8983C171.298 13.9838 171.33 14.1119 171.33 14.2722C171.33 14.5499 171.223 14.7529 170.978 14.8918C170.7 15.0627 170.294 15.1482 169.76 15.1482C169.311 15.1482 168.948 15.0948 168.66 14.9986C168.36 14.8918 168.051 14.7529 167.752 14.5713C167.111 14.1547 166.747 14.2295 166.48 14.5179C166.352 14.6674 166.277 14.8491 166.277 15.0627C166.277 15.2764 166.341 15.4793 166.459 15.6503C166.566 15.7891 166.726 15.9387 166.961 16.0883C167.335 16.3126 167.762 16.4942 168.243 16.6224C168.713 16.7399 169.226 16.804 169.749 16.804C170.753 16.804 171.576 16.5797 172.206 16.131C172.869 15.6609 173.2 15.0413 173.2 14.2722C173.2 13.7915 173.093 13.3855 172.89 13.065V13.0437Z" fill="black"/>
        <path d="M78.6679 29.6554C78.3795 29.6554 78.0804 29.634 77.8026 29.5913C77.5142 29.5485 77.2364 29.4844 76.9693 29.3883C76.7023 29.2921 76.4566 29.164 76.2322 29.0144C76.1361 28.9503 76.0613 28.8755 76.0293 28.7794C75.9972 28.6832 75.9865 28.5978 76.0079 28.5016C76.0293 28.4162 76.072 28.3307 76.1254 28.2666C76.1895 28.2025 76.2643 28.1598 76.3604 28.1491C76.4566 28.1384 76.5634 28.1598 76.6702 28.2346C76.9907 28.4375 77.3219 28.5764 77.6744 28.6512C78.0269 28.726 78.3902 28.7687 78.7534 28.7687C79.2555 28.7687 79.6507 28.6619 79.9605 28.4589C80.2596 28.2559 80.4199 27.9782 80.4199 27.6363C80.4199 27.3906 80.3344 27.177 80.1528 27.006C79.9712 26.8351 79.6614 26.6962 79.2234 26.6108L78.1658 26.3544C77.6958 26.2369 77.3112 26.0446 77.0334 25.7562C76.7557 25.4677 76.6061 25.0831 76.6061 24.581C76.6061 24.2499 76.6809 23.9508 76.8198 23.6837C76.9587 23.4166 77.1616 23.1923 77.4073 23C77.6637 22.8077 77.9522 22.6688 78.2726 22.5727C78.6038 22.4765 78.9457 22.4231 79.3089 22.4231C79.6721 22.4231 80.0673 22.4765 80.4733 22.5834C80.8792 22.6902 81.2318 22.8611 81.5522 23.0961C81.6484 23.1602 81.7018 23.2457 81.7339 23.3312C81.7659 23.4166 81.7659 23.5128 81.7445 23.6089C81.7232 23.6944 81.6804 23.7692 81.627 23.8333C81.5629 23.8867 81.4882 23.9187 81.392 23.9294C81.2959 23.9294 81.1784 23.8973 81.0502 23.8226C80.8045 23.6516 80.5267 23.5235 80.2169 23.438C79.9071 23.3525 79.5973 23.3098 79.2875 23.3098C78.9777 23.3098 78.6786 23.3632 78.4329 23.4594C78.1872 23.5555 77.9842 23.6944 77.8453 23.876C77.7065 24.0576 77.6317 24.2606 77.6317 24.5063C77.6317 24.8054 77.7065 25.0297 77.8667 25.1793C78.0269 25.3288 78.262 25.4357 78.5718 25.5211L79.6294 25.7775C80.2383 25.9164 80.6976 26.1407 80.9967 26.4398C81.2959 26.739 81.4454 27.1022 81.4454 27.5295C81.4454 27.882 81.3706 28.1918 81.2211 28.4589C81.0715 28.726 80.8686 28.9503 80.6122 29.1212C80.3558 29.3028 80.0567 29.431 79.7255 29.5165C79.3943 29.6019 79.0311 29.6554 78.6572 29.6554H78.6679Z" fill="black"/>
        <path d="M84.0841 29.6554C83.7956 29.6554 83.5286 29.5913 83.2829 29.4631C83.0372 29.3349 82.8342 29.1533 82.6953 28.9289C82.5457 28.7046 82.471 28.4589 82.471 28.1705C82.471 27.8286 82.5671 27.5402 82.7594 27.3265C82.9517 27.1129 83.2508 26.9526 83.6568 26.8565C84.0627 26.7497 84.5862 26.6962 85.2271 26.6962H86.0283L85.9429 27.3158H85.3233C84.8639 27.3158 84.5007 27.3372 84.2336 27.3906C83.9666 27.4333 83.7743 27.5188 83.6568 27.6363C83.5392 27.7538 83.4858 27.9141 83.4858 28.1064C83.4858 28.3734 83.5713 28.5764 83.7529 28.7153C83.9345 28.8542 84.1375 28.9289 84.3832 28.9289C84.6075 28.9289 84.8212 28.8755 85.0135 28.7794C85.2058 28.6832 85.366 28.5337 85.5049 28.3414C85.6437 28.1491 85.7292 27.9248 85.7719 27.6577L85.9642 26.4612C86.0283 26.1087 85.9749 25.8416 85.8147 25.6493C85.6544 25.4677 85.3767 25.3716 84.9814 25.3716C84.7464 25.3716 84.5221 25.3929 84.3084 25.4464C84.0947 25.4891 83.8704 25.5745 83.6568 25.6814C83.5606 25.7348 83.4645 25.7562 83.379 25.7348C83.2935 25.7134 83.2188 25.6814 83.1653 25.628C83.1119 25.5745 83.0799 25.4998 83.0799 25.425C83.0799 25.3502 83.0906 25.2647 83.144 25.19C83.1974 25.1045 83.2829 25.0404 83.4004 24.9763C83.6674 24.8481 83.9452 24.752 84.2443 24.6879C84.5434 24.6238 84.8319 24.6024 85.0989 24.6024C85.5903 24.6024 85.9749 24.6879 86.2527 24.8695C86.5304 25.0511 86.7334 25.2968 86.8295 25.6173C86.9257 25.9378 86.947 26.3117 86.883 26.7283L86.4984 29.1319C86.477 29.3028 86.4236 29.4203 86.3274 29.5058C86.2313 29.5913 86.1031 29.634 85.9535 29.634C85.804 29.634 85.6972 29.5806 85.6224 29.4844C85.5476 29.3883 85.5262 29.2494 85.5476 29.0678L85.6544 28.3414L85.7399 28.4909C85.6544 28.7473 85.5262 28.9717 85.3446 29.1426C85.163 29.3242 84.9707 29.4524 84.7571 29.5272C84.5434 29.602 84.3191 29.6447 84.0841 29.6447V29.6554Z" fill="black"/>
        <path d="M88.5388 29.634C88.3892 29.634 88.2717 29.5806 88.1969 29.4738C88.1222 29.3669 88.1008 29.2174 88.1222 29.0358L88.7418 25.1152C88.7738 24.9443 88.8272 24.8268 88.934 24.7413C89.0302 24.6558 89.1691 24.6131 89.3293 24.6131C89.4789 24.6131 89.5857 24.6558 89.6605 24.752C89.7353 24.8481 89.7566 24.987 89.7246 25.1686L89.6177 25.9057L89.5537 25.7348C89.7246 25.3609 89.9596 25.0725 90.2801 24.8802C90.6006 24.6879 90.9745 24.5811 91.4018 24.5811C91.765 24.5811 92.0641 24.6558 92.3098 24.8054C92.5555 24.955 92.7264 25.1793 92.8333 25.4784C92.9401 25.7775 92.9508 26.1621 92.876 26.6215L92.4914 29.1319C92.47 29.3028 92.406 29.4203 92.3098 29.5058C92.2137 29.5913 92.0748 29.634 91.9145 29.634C91.7543 29.634 91.6368 29.5806 91.562 29.4738C91.4872 29.3669 91.4659 29.2281 91.4872 29.0465L91.8718 26.6535C91.9359 26.2369 91.9039 25.9271 91.7757 25.7241C91.6475 25.5211 91.4018 25.4143 91.0599 25.4143C90.6112 25.4143 90.2587 25.5532 89.9916 25.8203C89.7246 26.098 89.5643 26.4612 89.4895 26.9419L89.137 29.1426C89.0943 29.4738 88.902 29.6447 88.5602 29.6447L88.5388 29.634Z" fill="black"/>
        <path d="M95.9633 29.6554C95.5894 29.6554 95.2689 29.5699 94.9912 29.399C94.7134 29.228 94.4998 28.993 94.3395 28.6725C94.1793 28.3627 94.1045 27.9888 94.1045 27.5615C94.1045 27.0167 94.2006 26.5146 94.3929 26.0659C94.5852 25.6173 94.863 25.2541 95.2369 24.987C95.6001 24.7199 96.0381 24.5917 96.5508 24.5917C96.9354 24.5917 97.2773 24.6879 97.5764 24.8802C97.8755 25.0725 98.0785 25.3502 98.196 25.7348H98.1212L98.5592 22.9252C98.5913 22.7543 98.6447 22.6261 98.7408 22.5513C98.837 22.4765 98.9652 22.4445 99.1361 22.4445C99.2856 22.4445 99.4032 22.4979 99.4779 22.594C99.5527 22.6902 99.5741 22.8291 99.5527 23.0214L98.5806 29.1212C98.5485 29.2921 98.4951 29.4097 98.399 29.5058C98.3028 29.5913 98.1746 29.634 98.0037 29.634C97.8541 29.634 97.7366 29.5806 97.6725 29.4737C97.6084 29.3669 97.5871 29.2174 97.6191 29.0358L97.726 28.3734L97.7687 28.5871C97.5871 28.9182 97.3414 29.1746 97.0423 29.3669C96.7431 29.5592 96.3799 29.6554 95.974 29.6554H95.9633ZM96.3372 28.8755C96.679 28.8755 96.9675 28.7794 97.1918 28.5871C97.4268 28.3948 97.6084 28.1384 97.726 27.8072C97.8542 27.4868 97.9076 27.1235 97.9076 26.7283C97.9076 26.2903 97.8007 25.9591 97.5871 25.7241C97.3734 25.4998 97.085 25.3822 96.7111 25.3822C96.3692 25.3822 96.0808 25.4784 95.8565 25.6707C95.6215 25.863 95.4398 26.1194 95.3223 26.4398C95.1941 26.7603 95.13 27.1235 95.13 27.5295C95.13 27.9675 95.2369 28.2986 95.4505 28.5337C95.6642 28.7687 95.9633 28.8862 96.3372 28.8862V28.8755Z" fill="black"/>
        <path d="M102.896 29.6554C102.512 29.6554 102.17 29.5592 101.871 29.3776C101.572 29.196 101.369 28.9076 101.251 28.5337L101.337 28.3521L101.219 29.1426C101.198 29.3028 101.144 29.431 101.059 29.5165C100.974 29.6019 100.835 29.6447 100.674 29.6447C100.514 29.6447 100.397 29.5913 100.322 29.4844C100.247 29.3776 100.215 29.2387 100.247 29.0464L101.219 22.9466C101.241 22.7757 101.305 22.6581 101.401 22.5727C101.497 22.4872 101.625 22.4445 101.796 22.4445C101.967 22.4445 102.074 22.4979 102.149 22.594C102.223 22.6902 102.245 22.8398 102.223 23.032L101.807 25.6707H101.7C101.882 25.3288 102.127 25.0618 102.426 24.8802C102.736 24.6879 103.089 24.5917 103.495 24.5917C103.869 24.5917 104.189 24.6772 104.477 24.8481C104.755 25.019 104.969 25.2541 105.129 25.5745C105.279 25.8843 105.353 26.2582 105.353 26.6962C105.353 27.2304 105.257 27.7325 105.065 28.1811C104.873 28.6298 104.595 28.993 104.232 29.2601C103.869 29.5272 103.431 29.6554 102.918 29.6554H102.896ZM102.736 28.8755C103.078 28.8755 103.366 28.7794 103.591 28.5871C103.826 28.3948 103.997 28.1384 104.125 27.8072C104.253 27.4868 104.307 27.1235 104.307 26.7283C104.307 26.2903 104.2 25.9591 103.986 25.7241C103.772 25.4998 103.484 25.3822 103.11 25.3822C102.779 25.3822 102.49 25.4784 102.255 25.6707C102.02 25.863 101.839 26.1194 101.711 26.4398C101.582 26.7603 101.518 27.1235 101.518 27.5295C101.518 27.9675 101.625 28.2986 101.839 28.5337C102.052 28.7687 102.352 28.8862 102.725 28.8862L102.736 28.8755Z" fill="black"/>
        <path d="M108.58 29.6554C108.12 29.6554 107.725 29.5699 107.405 29.399C107.073 29.2281 106.828 28.9717 106.646 28.6512C106.464 28.32 106.379 27.9354 106.379 27.4974C106.379 27.0595 106.443 26.6856 106.571 26.333C106.699 25.9805 106.881 25.6814 107.116 25.4143C107.351 25.1472 107.629 24.9549 107.949 24.8161C108.27 24.6772 108.622 24.6024 108.996 24.6024C109.456 24.6024 109.851 24.6879 110.171 24.8695C110.492 25.0511 110.748 25.2968 110.93 25.6173C111.111 25.9378 111.197 26.3223 111.197 26.771C111.197 27.2197 111.133 27.5829 111.005 27.9354C110.876 28.288 110.695 28.5978 110.46 28.8542C110.225 29.1105 109.947 29.3135 109.627 29.4524C109.306 29.5913 108.954 29.666 108.58 29.666V29.6554ZM108.601 28.8755C108.943 28.8755 109.231 28.7794 109.466 28.5871C109.701 28.3948 109.872 28.1384 110 27.8072C110.129 27.4868 110.182 27.1236 110.182 26.7283C110.182 26.2903 110.075 25.9591 109.862 25.7241C109.648 25.4998 109.359 25.3823 108.986 25.3823C108.644 25.3823 108.355 25.4784 108.12 25.6707C107.885 25.863 107.704 26.1194 107.586 26.4399C107.458 26.7603 107.405 27.1236 107.405 27.5295C107.405 27.9675 107.511 28.2987 107.725 28.5337C107.939 28.7687 108.227 28.8862 108.601 28.8862V28.8755Z" fill="black"/>
        <path d="M112.265 29.634C112.137 29.634 112.03 29.602 111.955 29.5272C111.881 29.4524 111.838 29.3669 111.849 29.2708C111.859 29.1746 111.902 29.0678 111.998 28.961L114.028 26.8458L114.007 27.2945L112.725 25.3288C112.65 25.2007 112.618 25.0725 112.628 24.9656C112.65 24.8588 112.693 24.7733 112.767 24.7092C112.842 24.6451 112.938 24.6131 113.056 24.6131C113.173 24.6131 113.269 24.6345 113.366 24.6879C113.462 24.7413 113.536 24.8161 113.601 24.9229L114.637 26.568H114.37L115.919 24.8695C116.004 24.7733 116.09 24.7092 116.154 24.6665C116.218 24.6238 116.325 24.6024 116.442 24.6024C116.592 24.6024 116.699 24.6345 116.773 24.7092C116.848 24.784 116.88 24.8695 116.88 24.9656C116.88 25.0725 116.827 25.1686 116.741 25.2647L114.861 27.2624V26.8137L116.229 28.9076C116.314 29.0358 116.346 29.1533 116.335 29.2601C116.325 29.3669 116.271 29.4524 116.186 29.5165C116.1 29.5806 116.004 29.6126 115.887 29.6126C115.78 29.6126 115.684 29.5913 115.588 29.5379C115.491 29.4844 115.417 29.4097 115.353 29.3028L114.209 27.5295H114.53L112.81 29.3456C112.714 29.4417 112.628 29.5058 112.564 29.5485C112.49 29.5913 112.393 29.6126 112.276 29.6126L112.265 29.634Z" fill="black"/>
        <path d="M123.215 29.6554C122.83 29.6554 122.489 29.5592 122.189 29.3776C121.89 29.196 121.687 28.9076 121.57 28.5337L121.655 28.3521L121.538 29.1426C121.516 29.3028 121.463 29.431 121.378 29.5165C121.292 29.6019 121.153 29.6447 120.993 29.6447C120.833 29.6447 120.715 29.5913 120.64 29.4844C120.566 29.3776 120.534 29.2387 120.566 29.0464L121.538 22.9466C121.559 22.7757 121.623 22.6581 121.719 22.5727C121.816 22.4872 121.944 22.4445 122.115 22.4445C122.286 22.4445 122.392 22.4979 122.467 22.594C122.542 22.6902 122.563 22.8398 122.542 23.032L122.125 25.6707H122.019C122.2 25.3288 122.446 25.0618 122.745 24.8802C123.055 24.6879 123.407 24.5917 123.813 24.5917C124.187 24.5917 124.508 24.6772 124.796 24.8481C125.074 25.019 125.288 25.2541 125.448 25.5745C125.597 25.8843 125.672 26.2582 125.672 26.6962C125.672 27.2304 125.576 27.7325 125.384 28.1811C125.191 28.6298 124.914 28.993 124.55 29.2601C124.187 29.5272 123.749 29.6554 123.236 29.6554H123.215ZM123.055 28.8755C123.397 28.8755 123.685 28.7794 123.909 28.5871C124.144 28.3948 124.315 28.1384 124.444 27.8072C124.572 27.4868 124.625 27.1235 124.625 26.7283C124.625 26.2903 124.518 25.9591 124.305 25.7241C124.091 25.4998 123.803 25.3822 123.429 25.3822C123.098 25.3822 122.809 25.4784 122.574 25.6707C122.339 25.863 122.157 26.1194 122.029 26.4398C121.901 26.7603 121.837 27.1235 121.837 27.5295C121.837 27.9675 121.944 28.2986 122.157 28.5337C122.371 28.7687 122.67 28.8862 123.044 28.8862L123.055 28.8755Z" fill="black"/>
        <path d="M127.413 31.4287C127.285 31.4287 127.189 31.3967 127.114 31.3432C127.039 31.2898 127.007 31.2044 127.007 31.1082C127.007 31.0121 127.029 30.9052 127.093 30.7984L128.044 29.2281L127.969 29.6554L126.794 25.3182C126.762 25.19 126.751 25.0618 126.783 24.9549C126.804 24.8481 126.858 24.7627 126.943 24.7092C127.029 24.6558 127.136 24.6238 127.253 24.6238C127.403 24.6238 127.51 24.6558 127.574 24.7199C127.648 24.784 127.702 24.9015 127.734 25.0831L128.642 28.7473H128.343L130.511 24.987C130.586 24.8588 130.661 24.7627 130.746 24.6986C130.821 24.6451 130.928 24.6131 131.067 24.6131C131.195 24.6131 131.291 24.6451 131.377 24.7092C131.451 24.7733 131.494 24.8481 131.505 24.9443C131.505 25.0404 131.483 25.1472 131.419 25.2647L127.969 31.0548C127.894 31.183 127.819 31.2685 127.734 31.3326C127.659 31.386 127.552 31.418 127.413 31.418V31.4287Z" fill="black"/>
        <path d="M138.235 29.6554C137.626 29.6554 137.103 29.5378 136.654 29.3028C136.205 29.0678 135.853 28.726 135.607 28.2666C135.361 27.8072 135.233 27.2517 135.233 26.6108C135.233 26.0125 135.319 25.457 135.479 24.9549C135.639 24.4528 135.885 24.0042 136.195 23.6303C136.504 23.2457 136.889 22.9573 137.338 22.7543C137.786 22.5513 138.288 22.4445 138.865 22.4445C139.474 22.4445 140.008 22.562 140.457 22.797C140.906 23.032 141.258 23.3739 141.504 23.8332C141.75 24.2926 141.878 24.8374 141.878 25.4891C141.878 26.098 141.792 26.6535 141.632 27.1556C141.472 27.6577 141.226 28.1064 140.916 28.4803C140.607 28.8541 140.222 29.1533 139.773 29.3562C139.325 29.5592 138.823 29.666 138.246 29.666L138.235 29.6554ZM138.256 28.7473C138.801 28.7473 139.261 28.6084 139.634 28.32C140.008 28.0423 140.286 27.647 140.478 27.1556C140.671 26.6642 140.767 26.1087 140.767 25.4784C140.767 24.7413 140.596 24.2071 140.254 23.8546C139.912 23.5021 139.431 23.3205 138.823 23.3205C138.288 23.3205 137.829 23.4594 137.455 23.7371C137.081 24.0149 136.804 24.3994 136.611 24.8908C136.419 25.3822 136.323 25.9484 136.323 26.568C136.323 27.3051 136.494 27.85 136.846 28.2025C137.188 28.555 137.669 28.7366 138.267 28.7366L138.256 28.7473Z" fill="black"/>
        <path d="M143.01 31.4287C142.85 31.4287 142.732 31.3753 142.658 31.2791C142.583 31.183 142.562 31.0334 142.583 30.8518L143.491 25.1366C143.523 24.9656 143.576 24.8374 143.673 24.752C143.769 24.6665 143.897 24.6238 144.068 24.6238C144.217 24.6238 144.335 24.6772 144.399 24.784C144.463 24.8908 144.484 25.0297 144.452 25.222L144.356 25.895L144.303 25.6814C144.484 25.3395 144.73 25.0831 145.029 24.8908C145.339 24.7092 145.692 24.6131 146.087 24.6131C146.461 24.6131 146.781 24.6986 147.07 24.8695C147.347 25.0404 147.561 25.2754 147.721 25.5959C147.871 25.9057 147.946 26.2796 147.946 26.7176C147.946 27.2517 147.85 27.7538 147.657 28.2025C147.465 28.6512 147.187 29.0144 146.824 29.2815C146.461 29.5485 146.023 29.6767 145.51 29.6767C145.125 29.6767 144.784 29.5806 144.484 29.399C144.185 29.2174 143.982 28.9289 143.865 28.555H143.95L143.555 30.98C143.523 31.151 143.47 31.2685 143.384 31.3432C143.299 31.418 143.16 31.4608 142.989 31.4608L143.01 31.4287ZM145.371 28.8755C145.713 28.8755 146.001 28.7794 146.226 28.5871C146.461 28.3948 146.632 28.1384 146.76 27.8072C146.888 27.4868 146.941 27.1235 146.941 26.7283C146.941 26.2903 146.835 25.9591 146.621 25.7241C146.407 25.4998 146.119 25.3823 145.745 25.3823C145.414 25.3823 145.125 25.4784 144.89 25.6707C144.655 25.863 144.474 26.1194 144.346 26.4399C144.217 26.7603 144.153 27.1235 144.153 27.5295C144.153 27.9675 144.26 28.2987 144.474 28.5337C144.687 28.7687 144.987 28.8862 145.36 28.8862L145.371 28.8755Z" fill="black"/>
        <path d="M151.353 29.6554C150.873 29.6554 150.456 29.5699 150.104 29.3883C149.751 29.2067 149.484 28.961 149.292 28.6298C149.099 28.2987 149.003 27.9141 149.003 27.4761C149.003 26.9419 149.11 26.4612 149.334 26.0232C149.559 25.5959 149.858 25.2434 150.264 24.987C150.659 24.7306 151.118 24.6024 151.642 24.6024C152.037 24.6024 152.368 24.6665 152.635 24.8054C152.902 24.9443 153.116 25.1259 153.266 25.3609C153.415 25.5959 153.522 25.8523 153.575 26.1514C153.629 26.4399 153.629 26.7497 153.597 27.0488C153.586 27.177 153.554 27.2624 153.501 27.2945C153.447 27.3265 153.372 27.3586 153.266 27.3586H149.804L149.879 26.739H152.945L152.764 26.8778C152.806 26.5894 152.806 26.3223 152.742 26.0873C152.678 25.8523 152.561 25.6707 152.379 25.5211C152.197 25.3823 151.952 25.3075 151.631 25.3075C151.311 25.3075 151.033 25.3823 150.809 25.5318C150.584 25.6814 150.413 25.8737 150.285 26.1087C150.157 26.3437 150.082 26.5894 150.029 26.8458L149.986 27.1129C149.89 27.647 149.975 28.0743 150.232 28.3948C150.488 28.7153 150.883 28.8755 151.407 28.8755C151.631 28.8755 151.845 28.8542 152.069 28.8007C152.294 28.7473 152.497 28.6619 152.678 28.5444C152.785 28.4803 152.881 28.4589 152.967 28.4589C153.052 28.4589 153.116 28.4909 153.17 28.5444C153.223 28.5978 153.255 28.6619 153.266 28.7366C153.276 28.8114 153.266 28.8969 153.234 28.9717C153.202 29.0571 153.137 29.1319 153.041 29.1853C152.817 29.3456 152.55 29.4631 152.229 29.5379C151.909 29.6126 151.621 29.6554 151.353 29.6554Z" fill="black"/>
        <path d="M155.018 29.634C154.868 29.634 154.751 29.5806 154.676 29.4738C154.601 29.3669 154.58 29.2174 154.601 29.0358L155.221 25.1152C155.253 24.9443 155.306 24.8268 155.413 24.7413C155.509 24.6558 155.648 24.6131 155.808 24.6131C155.958 24.6131 156.065 24.6558 156.139 24.752C156.214 24.8481 156.235 24.987 156.203 25.1686L156.097 25.9057L156.032 25.7348C156.203 25.3609 156.438 25.0725 156.759 24.8802C157.079 24.6879 157.453 24.5811 157.881 24.5811C158.244 24.5811 158.543 24.6558 158.789 24.8054C159.034 24.955 159.205 25.1793 159.312 25.4784C159.419 25.7775 159.43 26.1621 159.355 26.6215L158.97 29.1319C158.949 29.3028 158.885 29.4203 158.789 29.5058C158.693 29.5913 158.554 29.634 158.393 29.634C158.233 29.634 158.116 29.5806 158.041 29.4738C157.966 29.3669 157.945 29.2281 157.966 29.0465L158.351 26.6535C158.415 26.2369 158.383 25.9271 158.255 25.7241C158.126 25.5211 157.881 25.4143 157.539 25.4143C157.09 25.4143 156.738 25.5532 156.47 25.8203C156.203 26.098 156.043 26.4612 155.968 26.9419L155.616 29.1426C155.573 29.4738 155.381 29.6447 155.039 29.6447L155.018 29.634Z" fill="black"/>
        <path d="M164.055 29.6554C163.446 29.6554 162.902 29.5378 162.432 29.3135C161.961 29.0785 161.598 28.7366 161.331 28.2666C161.064 27.7966 160.936 27.1983 160.936 26.4826C160.936 25.9057 161.021 25.3822 161.192 24.8908C161.363 24.3994 161.609 23.9721 161.919 23.6089C162.229 23.2457 162.624 22.9573 163.083 22.7543C163.543 22.5513 164.066 22.4445 164.643 22.4445C165.038 22.4445 165.423 22.4979 165.786 22.6154C166.149 22.7329 166.459 22.8932 166.726 23.1068C166.822 23.1816 166.886 23.2671 166.908 23.3632C166.929 23.4594 166.929 23.5555 166.908 23.6516C166.876 23.7478 166.833 23.8226 166.769 23.8867C166.705 23.9508 166.63 23.9828 166.544 23.9935C166.459 23.9935 166.363 23.9828 166.267 23.9187C166.01 23.7157 165.743 23.5769 165.476 23.4914C165.209 23.4059 164.921 23.3632 164.621 23.3632C164.087 23.3632 163.617 23.5021 163.233 23.7692C162.848 24.0362 162.549 24.4101 162.346 24.8802C162.143 25.3502 162.036 25.8843 162.036 26.4719C162.036 27.006 162.122 27.444 162.282 27.7859C162.453 28.117 162.688 28.3627 163.008 28.523C163.329 28.6832 163.713 28.758 164.162 28.758C164.44 28.758 164.707 28.7153 164.953 28.6405C165.198 28.5657 165.444 28.4375 165.7 28.2559C165.807 28.1918 165.903 28.1598 166 28.1705C166.096 28.1705 166.17 28.2132 166.235 28.2773C166.299 28.3414 166.341 28.4162 166.363 28.5123C166.384 28.6084 166.373 28.6939 166.341 28.7901C166.309 28.8862 166.245 28.961 166.138 29.0251C165.839 29.2494 165.508 29.4097 165.145 29.5165C164.782 29.6233 164.419 29.6767 164.055 29.6767V29.6554Z" fill="black"/>
        <path d="M167.987 29.634C167.826 29.634 167.709 29.5806 167.634 29.4844C167.559 29.3883 167.538 29.2494 167.559 29.0678L168.189 25.1152C168.222 24.9443 168.275 24.8268 168.371 24.7413C168.467 24.6558 168.595 24.6238 168.756 24.6238C168.916 24.6238 169.023 24.6772 169.098 24.7733C169.172 24.8695 169.194 25.0084 169.172 25.2007L169.065 25.8737H168.969C169.098 25.4784 169.333 25.1793 169.653 24.9549C169.974 24.7413 170.337 24.6238 170.753 24.6024C170.924 24.6024 171.031 24.6238 171.085 24.6772C171.138 24.7306 171.17 24.8268 171.17 24.9549C171.17 25.1259 171.127 25.2541 171.052 25.3395C170.967 25.4143 170.839 25.4677 170.657 25.4891L170.422 25.5211C169.931 25.5639 169.578 25.7134 169.365 25.9591C169.151 26.2048 169.012 26.5467 168.937 26.9633L168.585 29.1746C168.563 29.3349 168.51 29.4524 168.403 29.5379C168.296 29.6233 168.168 29.6554 167.997 29.6554L167.987 29.634Z" fill="black"/>
        <path d="M173.029 29.6554C172.74 29.6554 172.473 29.5913 172.228 29.4631C171.982 29.3349 171.779 29.1533 171.64 28.9289C171.49 28.7046 171.416 28.4589 171.416 28.1705C171.416 27.8286 171.512 27.5402 171.704 27.3265C171.896 27.1129 172.196 26.9526 172.601 26.8565C173.007 26.7497 173.531 26.6962 174.172 26.6962H174.973L174.888 27.3158H174.268C173.809 27.3158 173.445 27.3372 173.178 27.3906C172.911 27.4333 172.719 27.5188 172.601 27.6363C172.484 27.7538 172.431 27.9141 172.431 28.1064C172.431 28.3734 172.516 28.5764 172.698 28.7153C172.879 28.8542 173.082 28.9289 173.328 28.9289C173.552 28.9289 173.766 28.8755 173.958 28.7794C174.15 28.6832 174.311 28.5337 174.45 28.3414C174.588 28.1491 174.674 27.9248 174.717 27.6577L174.909 26.4612C174.973 26.1087 174.92 25.8416 174.759 25.6493C174.599 25.4677 174.321 25.3716 173.926 25.3716C173.691 25.3716 173.467 25.3929 173.253 25.4464C173.039 25.4891 172.815 25.5745 172.601 25.6814C172.505 25.7348 172.409 25.7562 172.324 25.7348C172.238 25.7134 172.163 25.6814 172.11 25.628C172.057 25.5745 172.025 25.4998 172.025 25.425C172.025 25.3502 172.035 25.2647 172.089 25.19C172.142 25.1045 172.228 25.0404 172.345 24.9763C172.612 24.8481 172.89 24.752 173.189 24.6879C173.488 24.6238 173.777 24.6024 174.044 24.6024C174.535 24.6024 174.92 24.6879 175.197 24.8695C175.475 25.0511 175.678 25.2968 175.774 25.6173C175.87 25.9378 175.892 26.3117 175.828 26.7283L175.443 29.1319C175.422 29.3028 175.368 29.4203 175.272 29.5058C175.176 29.5913 175.048 29.634 174.898 29.634C174.749 29.634 174.642 29.5806 174.567 29.4844C174.492 29.3883 174.471 29.2494 174.492 29.0678L174.599 28.3414L174.685 28.4909C174.599 28.7473 174.471 28.9717 174.289 29.1426C174.108 29.3242 173.915 29.4524 173.702 29.5272C173.488 29.602 173.264 29.6447 173.029 29.6447V29.6554Z" fill="black"/>
        <path d="M177.783 29.634C177.633 29.634 177.516 29.5806 177.441 29.4737C177.366 29.3669 177.345 29.228 177.366 29.0358L177.932 25.457H177.419C177.291 25.457 177.184 25.425 177.12 25.3716C177.056 25.3181 177.024 25.2434 177.024 25.1472C177.024 24.9977 177.067 24.8908 177.152 24.8054C177.238 24.7199 177.355 24.6772 177.494 24.6772H178.178L178.039 24.8054L178.114 24.3674C178.199 23.8119 178.424 23.3739 178.765 23.0534C179.118 22.7329 179.609 22.5406 180.25 22.4979L180.56 22.4765C180.678 22.4765 180.763 22.4872 180.827 22.5406C180.891 22.5834 180.934 22.6475 180.955 22.7222C180.977 22.797 180.977 22.8718 180.955 22.9573C180.934 23.0427 180.902 23.0961 180.849 23.1602C180.795 23.2136 180.731 23.2457 180.646 23.2564L180.357 23.2777C179.994 23.2991 179.706 23.4059 179.513 23.5875C179.31 23.7691 179.182 24.0255 179.129 24.3781L179.054 24.784L178.979 24.6879H180.005C180.133 24.6879 180.24 24.7092 180.304 24.7626C180.368 24.8161 180.4 24.8908 180.4 24.9977C180.4 25.1472 180.357 25.2541 180.272 25.3395C180.186 25.425 180.069 25.4677 179.919 25.4677H178.947L178.37 29.1319C178.306 29.4631 178.114 29.634 177.783 29.634Z" fill="black"/>
        <path d="M182.579 29.6554C182.173 29.6554 181.853 29.5806 181.586 29.431C181.319 29.2815 181.137 29.0678 181.041 28.7901C180.934 28.5123 180.913 28.2025 180.977 27.8286L181.361 25.4677H180.817C180.688 25.4677 180.582 25.4357 180.507 25.3823C180.432 25.3182 180.389 25.2434 180.389 25.1472C180.389 24.9977 180.432 24.8909 180.528 24.8161C180.624 24.7413 180.752 24.6986 180.902 24.6986H181.468L181.639 23.6303C181.671 23.47 181.725 23.3525 181.821 23.2778C181.917 23.203 182.034 23.1602 182.195 23.1602C182.366 23.1602 182.494 23.2137 182.568 23.3098C182.643 23.406 182.665 23.5448 182.643 23.7264L182.494 24.7092H183.594C183.733 24.7092 183.84 24.7306 183.915 24.784C183.989 24.8374 184.021 24.9229 184.021 25.0297C184.021 25.1579 183.979 25.2648 183.893 25.3502C183.808 25.4357 183.69 25.4784 183.541 25.4784H182.376L182.002 27.7538C181.938 28.1384 181.981 28.4055 182.131 28.5764C182.28 28.7473 182.494 28.8221 182.782 28.8221C182.91 28.8221 183.006 28.8114 183.092 28.7901C183.167 28.7687 183.231 28.758 183.295 28.758C183.38 28.758 183.434 28.7794 183.466 28.8221C183.498 28.8648 183.519 28.9396 183.519 29.0465C183.519 29.2281 183.487 29.3563 183.434 29.431C183.38 29.5058 183.295 29.5592 183.188 29.5913C183.113 29.6126 183.017 29.634 182.9 29.6554C182.782 29.6767 182.675 29.6767 182.59 29.6767L182.579 29.6554Z" fill="black"/>
        <path d="M38.3939 28.5978L32.0056 35.8514L25.628 28.5978H38.3939Z" fill="black"/>
        <path d="M19.699 15.5007H14.9345V20.2652H19.699V15.5007Z" fill="black"/>
        <path d="M49.2689 15.5007H44.5044V20.2652H49.2689V15.5007Z" fill="black"/>
        <path d="M62.6544 7.16814H57.6015V1.55968C57.6015 0.69438 56.8964 0 56.0418 0C55.1872 0 54.4821 0.705063 54.4821 1.55968V7.16814H36.1719V15.4793C36.0971 15.4793 36.0223 15.458 35.9475 15.458H28.0957C28.0957 15.458 28.0636 15.458 28.0423 15.458V7.15745H9.732V1.55968C9.732 0.69438 9.02694 0 8.17232 0C7.3177 0 6.61263 0.705063 6.61263 1.55968V7.16814H1.55968C0.69438 7.16814 0 7.8732 0 8.72782C0 9.58244 0.705063 10.2875 1.55968 10.2875H6.60195V28.5978H28.0316V18.5773C28.0316 18.5773 28.0636 18.5773 28.085 18.5773H35.9368C36.0116 18.5773 36.0864 18.5667 36.1612 18.556V28.5871H57.5908V10.2982H62.6437C63.5091 10.2982 64.2034 9.59313 64.2034 8.7385C64.2034 7.88388 63.4984 7.17882 62.6437 7.17882L62.6544 7.16814ZM24.9122 25.4784H9.732V10.2982H24.9122V25.4784ZM39.2912 10.2982H54.4714V25.4784H39.2912V10.2982Z" fill="#0F1F24"/>
    </g>
    <defs>
        <clipPath id="clip0_285_122">
            <rect width="184" height="35.8514" fill="black"/>
        </clipPath>
    </defs>
</svg>
